<svg width="43" height="43" viewBox="0 0 43 43" fill="none" xmlns="http://www.w3.org/2000/svg">
<path d="M37.0611 21.178C37.0611 21.529 36.9217 21.8657 36.6735 22.1139C36.4253 22.3621 36.0886 22.5016 35.7376 22.5016H6.61851C6.26748 22.5016 5.93082 22.3621 5.68259 22.1139C5.43437 21.8657 5.29492 21.529 5.29492 21.178C5.29492 20.8269 5.43437 20.4903 5.68259 20.242C5.93082 19.9938 6.26748 19.8544 6.61851 19.8544H35.7376C36.0886 19.8544 36.4253 19.9938 36.6735 20.242C36.9217 20.4903 37.0611 20.8269 37.0611 21.178ZM6.61851 11.9128H35.7376C36.0886 11.9128 36.4253 11.7734 36.6735 11.5251C36.9217 11.2769 37.0611 10.9403 37.0611 10.5892C37.0611 10.2382 36.9217 9.90152 36.6735 9.6533C36.4253 9.40507 36.0886 9.26562 35.7376 9.26562H6.61851C6.26748 9.26562 5.93082 9.40507 5.68259 9.6533C5.43437 9.90152 5.29492 10.2382 5.29492 10.5892C5.29492 10.9403 5.43437 11.2769 5.68259 11.5251C5.93082 11.7734 6.26748 11.9128 6.61851 11.9128ZM35.7376 30.4431H6.61851C6.26748 30.4431 5.93082 30.5826 5.68259 30.8308C5.43437 31.079 5.29492 31.4157 5.29492 31.7667C5.29492 32.1177 5.43437 32.4544 5.68259 32.7026C5.93082 32.9508 6.26748 33.0903 6.61851 33.0903H35.7376C36.0886 33.0903 36.4253 32.9508 36.6735 32.7026C36.9217 32.4544 37.0611 32.1177 37.0611 31.7667C37.0611 31.4157 36.9217 31.079 36.6735 30.8308C36.4253 30.5826 36.0886 30.4431 35.7376 30.4431Z" fill="black"/>
</svg>
